<svg width="26" height="26" viewBox="0 0 26 26" fill="none" xmlns="http://www.w3.org/2000/svg">
<path d="M15.1668 15.4397V23.8333H4.3335C4.33316 22.5105 4.63566 21.2051 5.21782 20.0172C5.79998 18.8293 6.64634 17.7904 7.69206 16.9802C8.73778 16.17 9.9551 15.6099 11.2507 15.3429C12.5464 15.0758 13.886 15.1089 15.1668 15.4397ZM13.0002 14.0833C9.40891 14.0833 6.50016 11.1746 6.50016 7.58333C6.50016 3.99208 9.40891 1.08333 13.0002 1.08333C16.5914 1.08333 19.5002 3.99208 19.5002 7.58333C19.5002 11.1746 16.5914 14.0833 13.0002 14.0833ZM19.5002 18.4167V15.1667H21.6668V18.4167H24.9168V20.5833H21.6668V23.8333H19.5002V20.5833H16.2502V18.4167H19.5002Z" fill="#333333"/>
</svg>
