<svg width="16" height="16" viewBox="0 0 16 16" fill="none" xmlns="http://www.w3.org/2000/svg">
<path d="M7.93759 9.75C8.40172 9.75 8.84684 9.56563 9.17503 9.23744C9.50322 8.90925 9.68759 8.46413 9.68759 8C9.68759 7.94875 9.68525 7.89797 9.68087 7.84781L7.7854 9.74328C7.83556 9.74766 7.88618 9.75 7.93759 9.75ZM13.7301 2.58687L13.0626 1.92C13.0392 1.89658 13.0074 1.88342 12.9742 1.88342C12.9411 1.88342 12.9093 1.89658 12.8859 1.92L11.1777 3.62859C10.2355 3.14703 9.17624 2.90625 8.00009 2.90625C4.99697 2.90625 2.75634 4.47031 1.27822 7.59844C1.2188 7.72425 1.18799 7.86165 1.18799 8.00078C1.18799 8.13991 1.2188 8.27732 1.27822 8.40312C1.86884 9.64719 2.58004 10.6443 3.41181 11.3945L1.75884 13.0469C1.73542 13.0703 1.72226 13.1021 1.72226 13.1352C1.72226 13.1684 1.73542 13.2002 1.75884 13.2236L2.42587 13.8906C2.44931 13.914 2.48109 13.9272 2.51423 13.9272C2.54737 13.9272 2.57915 13.914 2.60259 13.8906L13.7301 2.76375C13.7417 2.75214 13.7509 2.73835 13.7572 2.72318C13.7635 2.70801 13.7668 2.69174 13.7668 2.67531C13.7668 2.65889 13.7635 2.64262 13.7572 2.62744C13.7509 2.61227 13.7417 2.59848 13.7301 2.58687ZM5.18759 8C5.18755 7.52501 5.31053 7.05811 5.54457 6.64477C5.77861 6.23144 6.11571 5.88578 6.52305 5.64145C6.93038 5.39713 7.39406 5.26247 7.8689 5.25061C8.34374 5.23874 8.81356 5.35007 9.23259 5.57375L8.4729 6.33344C8.16653 6.23534 7.83905 6.22352 7.5264 6.29929C7.21376 6.37506 6.92802 6.53548 6.70054 6.76295C6.47307 6.99043 6.31265 7.27617 6.23688 7.58881C6.16111 7.90146 6.17293 8.22894 6.27103 8.53531L5.51134 9.295C5.29815 8.89669 5.18693 8.45178 5.18759 8V8Z" fill="black"/>
<path d="M14.722 7.59687C14.172 6.43854 13.5174 5.49401 12.7581 4.76328L10.5059 7.01562C10.6958 7.5119 10.7379 8.05253 10.6271 8.5722C10.5163 9.09187 10.2574 9.56835 9.88172 9.94407C9.506 10.3198 9.02953 10.5787 8.50986 10.6894C7.99018 10.8002 7.44955 10.7581 6.95328 10.5683L5.04297 12.4786C5.92922 12.8887 6.91495 13.0938 8.00016 13.0938C11.0033 13.0938 13.2439 11.5297 14.722 8.40156C14.7815 8.27576 14.8123 8.13835 14.8123 7.99922C14.8123 7.86009 14.7815 7.72268 14.722 7.59687V7.59687Z" fill="black"/>
</svg>
