<svg width="26" height="26" viewBox="0 0 26 26" fill="none" xmlns="http://www.w3.org/2000/svg">
<path d="M14.5676 22.6471C14.747 22.5591 14.8982 22.4227 15.004 22.2533C15.1099 22.0838 15.1662 21.8881 15.1667 21.6883V15.925C15.1667 15.6412 15.2804 15.3682 15.4841 15.1667L22.1152 8.60817C22.316 8.4099 22.4755 8.17376 22.5845 7.91343C22.6935 7.65309 22.7497 7.37373 22.75 7.09151V4.3225C22.7494 4.18091 22.7209 4.04082 22.6662 3.91024C22.6114 3.77967 22.5314 3.66118 22.4308 3.56157C22.3302 3.46195 22.2109 3.38315 22.0798 3.32969C21.9486 3.27623 21.8083 3.24915 21.6667 3.25H4.33333C3.73425 3.25 3.25 3.72884 3.25 4.3225V7.09151C3.25 7.66025 3.47858 8.20626 3.88483 8.60817L10.5159 15.1667C10.6164 15.2658 10.6962 15.3838 10.7507 15.514C10.8052 15.6442 10.8333 15.7839 10.8333 15.925V22.7608C10.8333 23.5571 11.6805 24.0749 12.4009 23.7185L14.5676 22.6471Z" fill="#333333"/>
</svg>
